<svg width="1491" height="1786" viewBox="0 0 1491 1786" fill="none" xmlns="http://www.w3.org/2000/svg">
    <path pathLength="1" stroke="black" stroke-width="5" fill="none"
        d="M792.5 27.5C843.333 9.49999 955.8 -15.7 999 27.5C1035 19.3333 1118.8 15.8 1166 67C1331.67 165.5 1602 453.9 1358 819.5L1210.5 608L1131.5 716V608C1112 644 1058.2 716 999 716C939.8 716 836.667 673.333 792.5 652C853.167 638.833 968.6 601.7 945 558.5C910.667 591.5 816.4 647.6 714 608C611.6 568.4 428.667 732.5 350 819.5C328.5 867.167 265.9 964.4 187.5 972C180.833 998.167 176.4 1061.3 212 1104.5C256.5 1158.5 216.5 1198 241.5 1222.5C261.5 1242.1 295.833 1230.67 310.5 1222.5V1104.5C322 1212.67 355.8 1441.8 399 1493C453 1557 680 1695 714 1709.5C748 1724 925.5 1832 999 1753.5C1072.5 1675 1166 1591 1166 1571.5C1166 1552 1318.5 1311.5 1323.5 1267C1328.5 1222.5 1358 1163.5 1299 991.5C1295.67 990 1295.9 953.5 1323.5 819.5L1269.5 765L1112 785L1043 912.5L1112 1168.5C1092.33 1201.33 1042.2 1267 999 1267C955.8 1267 956.333 1237.33 962 1222.5C941.833 1213.5 898.1 1200.9 884.5 1222.5C870.9 1244.1 878.167 1235.5 883.5 1228.5C880.167 1239.83 867.1 1257.5 841.5 1237.5C809.5 1212.5 811 1161.5 859 1133C887 1070.17 938.5 936.4 920.5 904C902.5 871.6 872 834.167 859 819.5C835.167 786.5 764.9 721.8 674.5 727C584.1 732.2 510.5 779.167 485 802C518.833 548.333 616.2 41.8 735 45C582.333 26.8333 243.8 90.6 111 491C79.6667 523.333 19 609.4 27 695C35 780.6 49 821.333 55 831C41 861 21.4 931.2 55 972C50.3333 1039 63 1189.8 151 1257C163 1318.33 155 1427.4 27 1373C19 1364.33 4.20002 1339 9.00002 1307C-7.66663 1370.33 9.60005 1483.4 212 1429C205 1477 183 1574.2 151 1579C111 1585 284 1595 310.5 1533C316 1549.67 334.2 1585.8 363 1597C391.8 1608.2 421.667 1615 433 1617C422.333 1602.16 404.2 1567.8 417 1549C429.8 1530.2 563.667 1441.17 629 1399H714C776 1376.33 906.2 1333.8 931 1345C955.8 1356.2 972 1368.33 977 1373C990.333 1362.33 1022.2 1344.2 1043 1357C1063.8 1369.8 1097.67 1390.33 1112 1399L1081 1441C1046.83 1445 969 1450.6 931 1441C883.5 1429 843 1419 807 1419C778.2 1419 748.333 1412.33 737 1409C773.667 1455.67 866.6 1545.8 945 1533C1023.4 1520.2 1060.33 1479.67 1069 1461L1193 1357L1081 941C1084.33 922.333 1106 884.6 1166 883C1241 881 1269.5 905 1269.5 931C1269.5 957 1220 972 1193 972C1171.4 972 1130 963.333 1112 959L1116.5 912.5C1124.83 933.5 1148.7 971.7 1177.5 956.5C1213.5 937.5 1214 909.5 1205 898C1197.8 888.8 934.667 903.5 804 912C798.667 891.5 777.3 849.4 734.5 845C681 839.5 612 881 599.5 896.5C587 912 713 942.5 748 935C776 929 788.333 923.167 791 921L748 861.5C752.667 879.333 756.5 916.2 734.5 921C707 927 669 927 662 921C655 915 648.5 870 657.5 868C664.7 866.4 596.833 893.333 562 907C548.5 904.833 520.4 899 516 893C511.6 887 498.5 873.833 492.5 868C527.833 861.333 606.1 844 636.5 828C674.5 808 821 823.5 820 893L1116.5 888.5C1130 878.167 1167.1 859.1 1207.5 865.5C1258 873.5 1289 893.5 1299 894C1307 894.4 1324.66 890.5 1332.5 888.5C1319 904.167 1290.3 935.8 1283.5 937C1276.7 938.2 1389 940.5 1446 941.5C1442 918 1429.5 868.5 1411.5 858.5C1393.5 848.5 1354.33 838.667 1337 835C1284.5 829.5 1173.2 822.5 1148 838.5C1116.5 858.5 1052.5 896.5 1056.5 1032.5C1060.5 1168.5 1217 1210.5 1287.5 1175.5C1358 1140.5 1415 1040.5 1446 956.5
        M1443 959L1485 943C1480.33 936.333 1468.2 923 1457 923C1445.8 923 1429.67 867 1423 839C1333.67 825.667 1151.4 803 1137 819C1122.6 835 1085.67 869.667 1069 885L915 871C902.167 848.333 858.4 802.5 786 800.5C695.5 798 601 790 580 795.5C559 801 495.5 850.5 494 880C492.5 909.5 509 1138.5 647.5 1152C785.145 1165.42 859.083 1110.19 899.255 1004.48M899.255 1004.48C899.505 1003.82 899.753 1003.16 900 1002.5C932 916.9 912.837 968.151 899.255 1004.48Z
        M915.5 957C923.333 935.667 935.8 885.6 923 856C907 819 828 783.5 764.5 786.5C701 789.5 572.5 779 559 786.5C545.5 794 486.5 846 485.5 858C484.5 870 484 873.5 480 879C476.8 883.4 384.667 857.167 339 843.5C317 888 270.2 977.8 259 981C262 992.5 267.3 1017.2 264.5 1024C261 1032.5 239.5 1079 280 1078C312.4 1077.2 287.833 1130.67 271.5 1157.5" />
</svg>